<svg xmlns="http://www.w3.org/2000/svg" viewBox="0 0 624.5 297.69"><defs><style>.cls-1{fill:#603b2c;opacity:0.36;}.cls-2{fill:#915b40;}.cls-3{fill:#7f4f39;}.cls-4{fill:#ddb376;}.cls-5{fill:#bc9766;}.cls-6{fill:#aa694d;}.cls-7{fill:none;}.cls-8{fill:#e8901a;}.cls-9{fill:#e5cc35;}.cls-10{fill:#f9f926;}</style></defs><title>자산 3</title><g id="레이어_2" data-name="레이어 2"><g id="Layer_1" data-name="Layer 1"><path class="cls-1" d="M148.45,249.58s-25.54-5.14-19.44,12.35,34.57,29.73,49.23,28.69,94.52-13.11,122.19-12,122.84-1.94,136.23-.47,42.3-.52,44-1.94,6.05-3.44,2.42-6S148.45,249.58,148.45,249.58Z"/><path class="cls-2" d="M309.59,270.75,459.47,276c7,.24,14.56.37,20.55-3.34,9.62-6,11.43-19.22,10.22-30.47s-4.65-22.67-12.36-30.93c-10-10.71-25.7-14.38-40.36-13.77s-28.87,4.9-43.27,7.71c-75.24,14.71-154.41-11-229.13,6.16-6.66,1.53-13.48,3.52-18.65,8-11.89,10.26-10.23,30.46-.07,42.44,8,9.44,22.49,17.5,35,18.64,11.65,1.06,24.35-4.91,35.84-6.78C247.73,268.63,278.83,269.68,309.59,270.75Z"/><path class="cls-3" d="M490.05,242a68.09,68.09,0,0,0-3.84-16.86c.51,10.43-1.81,21.75-10.48,27.12-6,3.72-13.51,3.59-20.55,3.34l-149.89-5.2c-30.76-1.07-61.85-2.12-92.36,2.84-11.49,1.88-24.19,7.84-35.83,6.78-12.51-1.14-27-9.2-35-18.64a33.4,33.4,0,0,1-4-5.85,35.6,35.6,0,0,0,8.07,26.05c8,9.44,22.48,17.5,35,18.64,11.64,1.06,24.34-4.91,35.83-6.78,30.51-5,61.6-3.91,92.36-2.84l149.89,5.2c7,.25,14.55.38,20.54-3.34C489.45,266.48,491.26,253.22,490.05,242Z"/><path class="cls-4" d="M138.69,227c-4.42,7.2-5.45,16.57-2,24.28a35.53,35.53,0,0,0,6.78,9.56,72.92,72.92,0,0,0,21.29,15.65c5.56,2.69,11.6,4.7,17.78,4.68s12.55-2.27,16.6-6.94a18.47,18.47,0,0,0,3.42-17.64c-1.4-4.21-4.24-7.76-7.11-11.15A268.37,268.37,0,0,0,172,221.11a39.66,39.66,0,0,0-9.25-6.84c-3.57-1.72-5.37-1.52-9,0A32.89,32.89,0,0,0,138.69,227Z"/><path class="cls-5" d="M157.34,241.12a4.85,4.85,0,0,0-1,4.76,10.33,10.33,0,0,0,2.73,4.27,20.77,20.77,0,0,0,6.72,4.72,4.75,4.75,0,0,0,2,.48,3.57,3.57,0,0,0,3.06-3.46,7.62,7.62,0,0,0-1.68-4.68C167.33,244.61,160.81,237.76,157.34,241.12Z"/><path class="cls-5" d="M153.47,236.5c2.11-1.67,5.17-1.31,7.73-.47a27.38,27.38,0,0,1,18,20.52,4.79,4.79,0,0,1-.22,3.26c-.54,1-2,1.45-2.79.66,1.14,1.48,3.75.74,4.63-.91s.53-3.67,0-5.47c-2.49-8.79-8.48-16.76-16.78-20.58a16.2,16.2,0,0,0-9.2-1.64,9,9,0,0,0-7.15,5.51c-1.08,3.11.08,6.54,1.64,9.43,1.44,2.67,3.49,5.32,6.44,6C152.76,249.31,148.86,240.13,153.47,236.5Z"/><path class="cls-5" d="M156.08,260.3a60,60,0,0,0,10.17,8.95c3.81,2.45,8.32,4.05,12.83,3.62,2.69-.26,5.45-1.35,7-3.58a10.76,10.76,0,0,0,1.54-5.71,27.94,27.94,0,0,0-4.84-16.84c5.17,4.8,6.7,12.37,6.76,19.42a10.47,10.47,0,0,1-.86,5c-1.22,2.3-3.87,3.49-6.45,3.85-4.28.61-8.61-.61-12.6-2.27A56.42,56.42,0,0,1,143,249.58c-2-3.37-3.67-7.08-3.74-11s1.77-8.06,5.28-9.8a17.72,17.72,0,0,0-3.23,13.27c.54,3.27,3.87,6.18,5.93,8.67C150,254.07,153,257.19,156.08,260.3Z"/><path class="cls-6" d="M177.5,214c-.86,2,.17,4.37,1.85,5.71a13.16,13.16,0,0,0,6,2.22,44,44,0,0,0,9.08.78c6-.21,11.76-2.15,17.62-3.43,13-2.83,26.4-2.43,39.67-2,12,.38,24.08.76,36.09,1.75,28.9,2.38,57.78,8.29,86.67,5.79,2.93-.25,6.71-1.51,6.59-4.45-.13-3.09-4.3-3.89-7.39-3.76-16.72.69-33.49,1.4-50.18.07-14.38-1.15-28.59-3.8-42.91-5.59a356.22,356.22,0,0,0-54.83-2.55q-13.6.4-27.15,1.86C195.1,210.76,179,210.5,177.5,214Z"/><path class="cls-6" d="M398.51,223.86c7.83-.39,15.45-2.91,23.28-3.24,10.66-.44,21.19,3.22,31.84,2.63a15.34,15.34,0,0,0,8-2.26c2.3-1.62,3.84-4.59,3-7.3s-3.83-4.47-6.67-5.36c-7.66-2.38-15.9-1.69-23.9-1-12.86,1.15-25.82,1.92-38.64,3.34C383.17,212.05,387.11,224.74,398.51,223.86Z"/><path class="cls-1" d="M236.75,150s-22.62-12.93-22.34,5.6,23.44,39.11,37.68,42.74,93.84,17.35,119.74,27.14S489,262.32,501.27,267.93s40.3,12.84,42.33,12,6.83-1.35,4.21-5S236.75,150,236.75,150Z"/><path class="cls-2" d="M383,220.84,523.61,273c6.61,2.45,13.7,4.94,20.55,3.3,11-2.62,16.9-14.63,19.3-25.69s2.74-23-2-33.25c-6.13-13.33-19.86-21.75-34-25.8s-28.94-4.44-43.49-6.31c-76-9.75-143.08-59.11-219.4-66.37-6.8-.65-13.9-.91-20.22,1.7-14.51,6-19.3,25.68-13.43,40.24,4.62,11.49,15.82,23.7,27.33,28.72,10.72,4.68,24.65,3,36.15,4.86C325,199.33,354.15,210.13,383,220.84Z"/><path class="cls-3" d="M563.35,250.41A68.34,68.34,0,0,0,565,233.19c-2.8,10.06-8.57,20.07-18.5,22.44-6.85,1.64-14-.85-20.55-3.3L385.35,200.14c-28.85-10.71-58-21.5-88.55-26.4-11.49-1.85-25.42-.19-36.14-4.87-11.51-5-22.71-17.23-27.34-28.71a34.39,34.39,0,0,1-1.91-6.81,35.68,35.68,0,0,0-.55,27.27c4.63,11.49,15.82,23.7,27.33,28.72,10.72,4.68,24.65,3,36.15,4.86,30.51,4.9,59.69,15.7,88.55,26.41l140.6,52.18c6.61,2.45,13.7,4.94,20.55,3.31C555.05,273.47,560.94,261.46,563.35,250.41Z"/><path class="cls-4" d="M234.6,125.47c-6.46,5.45-10.4,14-9.54,22.42a35.53,35.53,0,0,0,3.42,11.21,72.7,72.7,0,0,0,15.27,21.56c4.43,4.31,9.53,8.12,15.4,10.05s12.62,1.8,17.94-1.35a18.48,18.48,0,0,0,8.81-15.67c0-4.43-1.58-8.7-3.24-12.82a267.3,267.3,0,0,0-14.59-30.5,39.47,39.47,0,0,0-6.62-9.41c-2.84-2.75-4.62-3.14-8.51-2.8A32.94,32.94,0,0,0,234.6,125.47Z"/><path class="cls-5" d="M247.86,144.74a4.86,4.86,0,0,0-2.49,4.19,10.38,10.38,0,0,0,1.25,4.91,20.68,20.68,0,0,0,4.9,6.6,4.65,4.65,0,0,0,1.75,1.09,3.57,3.57,0,0,0,4-2.32,7.64,7.64,0,0,0-.11-5C256.23,151.2,252.21,142.64,247.86,144.74Z"/><path class="cls-5" d="M245.64,139.13c2.53-.92,5.32.39,7.48,2a27.34,27.34,0,0,1,10.6,25.14,4.8,4.8,0,0,1-1.23,3c-.83.75-2.38.75-2.86-.25.61,1.77,3.32,1.89,4.68.6s1.65-3.32,1.74-5.19c.41-9.12-2.77-18.57-9.44-24.81a16.19,16.19,0,0,0-8.21-4.46,9,9,0,0,0-8.52,3c-2,2.6-2,6.23-1.42,9.47.52,3,1.64,6.15,4.22,7.73C240.93,151.07,240.12,141.13,245.64,139.13Z"/><path class="cls-5" d="M240.61,162.54a60.21,60.21,0,0,0,6.84,11.7c2.84,3.52,6.62,6.47,11,7.48,2.63.6,5.6.43,7.75-1.2a10.81,10.81,0,0,0,3.26-4.93,28,28,0,0,0,.71-17.51c3.39,6.18,2.46,13.85.29,20.56a10.36,10.36,0,0,1-2.39,4.48c-1.88,1.79-4.77,2.08-7.33,1.62-4.25-.78-8-3.3-11.25-6.13a56.46,56.46,0,0,1-18-30.37c-.83-3.82-1.25-7.87-.08-11.61s4.22-7.09,8.09-7.64a17.72,17.72,0,0,0-7.24,11.58c-.52,3.27,1.73,7.08,2.9,10.09C236.82,154.71,238.71,158.63,240.61,162.54Z"/><path class="cls-6" d="M275.54,125.35c-1.44,1.6-1.22,4.2,0,6a13.19,13.19,0,0,0,5,4,43.57,43.57,0,0,0,8.37,3.6c5.75,1.69,11.84,1.67,17.8,2.3,13.2,1.4,25.82,6,38.28,10.6,11.31,4.15,22.62,8.31,33.7,13,26.69,11.37,52.22,26.08,80.43,32.81,2.87.69,6.85.68,7.66-2.14s-2.86-5-5.83-5.9c-16.09-4.62-32.23-9.23-47.64-15.75-13.29-5.62-25.94-12.62-39-18.83a357,357,0,0,0-51.23-19.7q-13.05-3.9-26.36-6.79C293.26,127.82,278.09,122.52,275.54,125.35Z"/><path class="cls-6" d="M482.18,204.37c7.55,2.1,15.57,2.1,23.11,4.26,10.25,3,19.09,9.74,29.39,12.53a15.27,15.27,0,0,0,8.33.38c2.69-.8,5.1-3.14,5.2-6,.11-3-2.23-5.45-4.65-7.19-6.52-4.68-14.55-6.62-22.37-8.46-12.57-3-25.1-6.32-37.72-9C471.34,188.33,471.07,201.61,482.18,204.37Z"/><rect class="cls-7" width="624.5" height="297.69"/><path class="cls-8" d="M222.22,228.15c1-12.78,8.93-25.9,3.75-37.62a54,54,0,0,1,22.26,18.05c4.37-14.41-.31-30.79,5.9-44.5,4.63-10.23,14.7-17.36,18.74-27.85-.69,7.61,5.65,13.74,10.9,19.28a105,105,0,0,1,19.49,29,97.89,97.89,0,0,1,4.93-21.84c.17,7.54,10.42,11.38,11.63,18.83.66,4-1.35,9,1.6,11.84,6-7.8,3.42-18.95,5.37-28.59,2-10.05,9-18.25,14.79-26.68s10.88-18.64,8.43-28.59c4.09,17.08,20.74,28.08,28.56,43.8,6.05,12.17,6.42,26.38,5.08,39.9,1.23-2.06,2.45-4.13,3.68-6.2A220.92,220.92,0,0,0,395,211.22c4.51-.6,7.62-6.06,5.85-10.24a70.2,70.2,0,0,1,9.75,25.44c1.82,10.63.81,22.53-6.28,30.65s-18.9,10.76-29.81,11.18-22-.75-32.61,2c-5.34,1.4-10.38,3.79-15.74,5.13-24.9,6.2-46.11-11.73-70.17-11.29A33.55,33.55,0,0,1,222.22,228.15Z"/><path class="cls-9" d="M247.25,220.71l12.13,6.83c2.35,1.32,5,3.11,5.25,6a92.57,92.57,0,0,1,4-38.66,21.26,21.26,0,0,0,2.3,8.75,49.28,49.28,0,0,0,2.94-31.34c15.34,11.38,25.29,31.05,26,51.34a40.25,40.25,0,0,1,6-21.29,39.39,39.39,0,0,0,1.59,11.6,37.46,37.46,0,0,0,5.5-17.72c6.92,9.3,13,21.09,10.44,32.75a116,116,0,0,1,9.7-33.53,23.67,23.67,0,0,0,1.27,8.81c5.63-7.85,3.67-19.14,5.54-28.91,1.48-7.78,5.46-14.67,9.36-21.38-1.84,4.63-1.28,10,.22,14.78s3.9,9.12,5.78,13.73a68,68,0,0,1,4.57,32.44A48.07,48.07,0,0,0,364.1,203a42.8,42.8,0,0,1,2.38,24.75,32.54,32.54,0,0,0,6.18-15.89c-.13,5.7,4.8,9.77,7.23,14.8a18.12,18.12,0,0,1,.34,14.66A31.42,31.42,0,0,0,386,228.66c3.11,8.51-1,18.39-7.11,24.66-8.05,8.25-19.16,12.12-30.13,13.28s-22-.14-33-.9c-16.25-1.12-33.18-1.15-48.57-7.7-6.29-2.68-13.5-5.91-16.77-12.74C246.86,237.87,247,228.82,247.25,220.71Z"/><path class="cls-8" d="M277.84,108.65c.3-1.55.44-3.34-.59-4.53,2.1,7.09-.89,14.84.64,22.08.86,4,3.07,7.66,4.83,11.4s3,7.67,2.2,11.71c.12-8.27-5.54-10-9.3-15.95C270.87,125.87,276.36,116.32,277.84,108.65Z"/><path class="cls-8" d="M393.8,186.15c-.12-5.06,2.4-9.74,4.52-14.34s3.93-9.82,2.32-14.62l3.48,14.09c.67,2.7,1.35,5.51.87,8.25-.6,3.44-2.9,6.31-4.07,9.59s-1.18,6.74-1.2,10.17C399.74,195.39,393.93,191,393.8,186.15Z"/><path class="cls-8" d="M325.9,117.47c.77-8.06,5.11-16,3.07-23.85a32.34,32.34,0,0,0,3.92,15.14,34.66,34.66,0,0,1,3.19,6.28c1.2,3.94.19,8.2-1.19,12.08-1.08,3-2,6.82-3.46,9.47C327,131.76,325.29,123.86,325.9,117.47Z"/><path class="cls-10" d="M278.14,244.92c-.64-3-.13-6.09.37-9.1l3.42-20.43c-2.4,5.35,1.76,11.11,4.57,16.26A37.53,37.53,0,0,1,291,248.11l2.34-10,5.69,12.24a134.39,134.39,0,0,0,8.5-26.16,99.84,99.84,0,0,1,11,30.37l2.22-8,2.92,5.92a363.41,363.41,0,0,1,14.44-40.39l.93,3.07a15.8,15.8,0,0,0,2.52-10.84,116.74,116.74,0,0,1,4.32,43.47q1.43-3.82,2.84-7.65.24,4.08.46,8.15a6.41,6.41,0,0,0,2.24-4.83c2,6.71-1,14.27-6.38,18.79s-12.59,6.31-19.6,6.31-13.89-1.64-20.7-3.29c-5.73-1.38-12-3.06-16.64-6.84C284.85,255.76,279,249,278.14,244.92Z"/></g></g></svg>