<svg id="레이어_1" data-name="레이어 1" xmlns="http://www.w3.org/2000/svg" viewBox="0 0 190 190"><defs><style>.cls-1{fill:none;}.cls-2{fill:#f39800;}.cls-3{fill:#1e1c12;}</style></defs><rect class="cls-1" width="190" height="190"/><path class="cls-2" d="M90,166.61c-16,0-30-.25-38.41-.68L50,165.85l-.31-1.52a181.72,181.72,0,0,1-3.13-35.63v-1.95l51.51-1.27-45.75-.12-3-20.88,2.17-.13c14.75-.83,33.94-1.29,54-1.29s39.32.46,54.15,1.29l1.89.11v1.89c0,13.54-.94,23.79-3.13,34.27l-.33,1.56-43.29.81,49,.22-1.68,21-1.62.19C146.89,166,114,166.61,90,166.61ZM21.13,84.32l1.75-1.49a75,75,0,0,0,21.7-30.58c-7-.17-13.72-.46-18.31-.8l-1.85-.14V25.23l1.87-.12c10.52-.66,24.78-1,40.16-1s29.59.37,40,1l1.88.12V43h16.8c-.51-6.09-1.14-11.31-1.87-15.54l-.38-2.24,44.28-1.9.12,2c1.71,28.35-.76,56.44-6.62,75.15l-.44,1.4H125.52l.14-2.13c.55-8.14.8-17.83.72-26.91l-19.11,1.73V51.39l-.78.06c-4.59.34-11.3.63-18.34.8A74.05,74.05,0,0,0,110,82.82l1.79,1.5L91.32,102.21,90,101.26c-10.33-7.64-18.25-16-23.57-25-5.2,8.68-13.16,17.07-23.72,25l-1.3,1Z"/><path class="cls-3" d="M165.3,25.39c1.55,25.61-.34,54.66-6.53,74.43H127.66c.52-7.74.86-18.22.69-29.22l-19.08,1.72V45h18c-.52-6.71-1.21-12.89-2.07-17.88l40.05-1.72m-98.85.69c14.59,0,29.15.34,39.9,1V49.46c-4.64.34-12.21.68-21,.85a74.69,74.69,0,0,0,23.37,34L91.22,99.65C80.05,91.4,71.62,82.11,66.47,72.14c-5.16,10-13.93,19.26-24.93,27.51L24.18,84.35a77.09,77.09,0,0,0,23.21-34c-8.77-.17-16.33-.51-21-.85V27.11c10.83-.69,25.44-1,40-1m39.14,79c19.36,0,38.74.43,54,1.29,0,12.89-.86,23.21-3.09,33.86L83,141.59l.34,3.26,78.39.35-1.38,17.19c-12.63,1.52-43.48,2.22-70.33,2.22-15.54,0-29.74-.23-38.3-.68a180,180,0,0,1-3.1-35.23l76.66-1.89-.17-3.27-71-.17-2.4-17c15.21-.86,34.55-1.29,53.9-1.29m63.47-83.83-3.93.16-40,1.72-4.54.2.77,4.48c.63,3.66,1.19,8.09,1.66,13.2H110.35V23.36l-3.75-.24c-10.47-.67-24.73-1-40.15-1s-29.73.37-40.29,1l-3.74.24V53.17l3.7.27c4,.3,9.55.56,15.53.74A73.34,73.34,0,0,1,21.59,81.31l-3.51,3,3.46,3,17.36,15.3,2.44,2.15,2.6-2C53.6,95.6,61.15,87.94,66.45,80A89.78,89.78,0,0,0,86.64,101.2c-13,.2-25.13.59-35.18,1.16l-4.34.24.6,4.31,2.41,17,.1.72-1.74,0-3.9.09v3.91a183.3,183.3,0,0,0,3.17,36l.61,3.05,3.11.16c8.39.43,22.43.68,38.51.68,24.06,0,57.05-.59,70.81-2.25l3.25-.39.26-3.26,1.37-17.19.35-4.3-4.32,0h-1.29l0-.16c2.23-10.62,3.18-21,3.18-34.68v-3.78l-1.5-.09.46-1.47c5.93-18.92,8.43-47.29,6.71-75.86l-.24-3.92Zm-78,33c5.35-.16,10.35-.38,14.21-.64V75.6A71.19,71.19,0,0,1,91.06,54.18Zm15.18,22.43,3.39-.31L124.39,75c0,8.39-.22,17.14-.72,24.58l-.11,1.64c-5.84-.09-11.87-.13-18-.13-3.34,0-6.67,0-10,0l15.74-13.74,3.52-3.07-3.57-3c-1.77-1.49-3.47-3.06-5.09-4.68Z"/></svg>