<svg id="레이어_1" data-name="레이어 1" xmlns="http://www.w3.org/2000/svg" viewBox="0 0 190 190"><defs><style>.cls-1{fill:none;}.cls-2{fill:#f39800;}.cls-3{fill:#1e1c12;}</style></defs><rect class="cls-1" width="190" height="190"/><path class="cls-2" d="M91,166.62c-18.61,0-35.79-.56-48.4-1.56L41,164.94l-.23-1.59c-2.15-15-3.11-41.28-3.11-55.11v-1.86l1.85-.14c13.48-1,32.86-1.55,53.15-1.55s39.07.56,51.49,1.55l1.8.15.05,1.8c.35,13.89-1.25,42.25-3.12,55.17l-.23,1.59-1.6.11C127.4,166.07,109.62,166.62,91,166.62Zm16.74-23.48-.4-14.56-29.56-.76.14,14.56Zm2.31-39.95.16-2.15c1.31-18,1.1-54.63-2.21-73.59l-.39-2.25,44.29-1.9.12,2c.3,5,.47,10.24.51,15.61l19.53-2.08-1.56,36.38H150.61a160.3,160.3,0,0,1-5.36,26.6l-.43,1.42Zm-52.81-1.51c-12,0-23.65-.49-33.74-1.42l-1.59-.15-.21-1.58c-3.55-26.28-4.45-47-3.11-71.54l.11-1.89H52.43l-.68,16H64.12l-.35-16H97.66L97.72,27a439.67,439.67,0,0,1-3.1,71.47l-.2,1.61-1.62.14C81.52,101.19,69.24,101.68,57.26,101.68Zm7.87-26.14-.23-8.87-14.36.68-.34,7.52Z"/><path class="cls-3" d="M150,25.38c.35,5.68.52,11.69.52,17.71L170,41l-1.37,32.14H148.84a162.23,162.23,0,0,1-5.5,28H112.23c1.37-18.91,1-55.35-2.24-74.09L150,25.38M95.72,27.1a439,439,0,0,1-3.09,71.17c-11.43.94-23.55,1.41-35.37,1.41s-23.33-.47-33.56-1.41C20.26,72.83,19.23,52.2,20.61,27.1H50.35l-.69,16h16.5l-.34-16h29.9M67.19,77.64l-.34-13.06-18.22.86-.52,11.34,19.08.86m25.5,29.05c19.32,0,38.36.51,51.34,1.55.34,13.4-1.21,41.76-3.1,54.83-14.09,1-32.14,1.55-49.91,1.55s-35.26-.52-48.24-1.55c-2.06-14.44-3.09-40.22-3.09-54.83,14.09-1,33.69-1.55,53-1.55m17.13,38.5-.52-18.56-33.51-.86L76,144.33l33.86.86m44-124-3.93.17-40.05,1.72-4.55.19.78,4.49c3.28,18.82,3.48,55.26,2.19,73.11l-.14,1.9c-5-.07-10.14-.11-15.41-.11H86.93c2-.13,4-.28,6-.45l3.25-.27.39-3.24A441.05,441.05,0,0,0,99.72,27l-.13-3.87H61.73l.09,4.09.25,11.9H53.83l.51-11.82.18-4.17H16.82l-.21,3.78c-1.35,24.67-.44,45.5,3.13,71.92l.42,3.16,3.17.29c8.06.74,17.1,1.21,26.51,1.37-3.77.18-7.27.39-10.44.63l-3.71.27v3.72c0,13.89,1,40.26,3.13,55.39l.46,3.17,3.19.26c12.65,1,29.89,1.56,48.55,1.56s36.47-.56,50.2-1.56l3.21-.24.46-3.18c1.88-13,3.49-41.53,3.13-55.51l-.09-3.6-1.4-.11.63-2.07a159.49,159.49,0,0,0,5.22-25.18h20.06l.16-3.83L174,41.2l.2-4.64-4.62.49-15,1.6c-.07-4.64-.23-9.16-.5-13.51l-.23-3.92Zm-101.34,48,10.5-.5.12,4.69L52.29,73l.17-3.7Zm27.46,71.17-.1-10.56,25.59.66.29,10.56-25.78-.66Z"/></svg>