<svg xmlns="http://www.w3.org/2000/svg" viewBox="0 0 624.5 297.69"><defs><style>.cls-1{fill:#603b2c;opacity:0.36;}.cls-2{fill:#915b40;}.cls-3{fill:#7f4f39;}.cls-4{fill:#ddb376;}.cls-5{fill:#bc9766;}.cls-6{fill:#aa694d;}.cls-7{fill:none;}.cls-8{fill:#e8901a;}.cls-9{fill:#e5cc35;}.cls-10{fill:#f9f926;}</style></defs><title>자산 7</title><g id="레이어_2" data-name="레이어 2"><g id="Layer_1" data-name="Layer 1"><path class="cls-1" d="M148.45,249.58s-25.54-5.14-19.44,12.35,34.57,29.73,49.23,28.69,94.52-13.11,122.19-12,122.84-1.94,136.23-.47,42.3-.52,44-1.94,6.05-3.44,2.42-6S148.45,249.58,148.45,249.58Z"/><path class="cls-2" d="M309.59,270.75,459.47,276c7,.24,14.56.37,20.55-3.34,9.62-6,11.43-19.22,10.22-30.47s-4.65-22.67-12.36-30.93c-10-10.71-25.7-14.38-40.36-13.77s-28.87,4.9-43.27,7.71c-75.24,14.71-154.41-11-229.13,6.16-6.66,1.53-13.48,3.52-18.65,8-11.89,10.26-10.23,30.46-.07,42.44,8,9.44,22.49,17.5,35,18.64,11.65,1.06,24.35-4.91,35.84-6.78C247.73,268.63,278.83,269.68,309.59,270.75Z"/><path class="cls-3" d="M490.05,242a68.09,68.09,0,0,0-3.84-16.86c.51,10.43-1.81,21.75-10.48,27.12-6,3.72-13.51,3.59-20.55,3.34l-149.89-5.2c-30.76-1.07-61.85-2.12-92.36,2.84-11.49,1.88-24.19,7.84-35.83,6.78-12.51-1.14-27-9.2-35-18.64a33.4,33.4,0,0,1-4-5.85,35.6,35.6,0,0,0,8.07,26.05c8,9.44,22.48,17.5,35,18.64,11.64,1.06,24.34-4.91,35.83-6.78,30.51-5,61.6-3.91,92.36-2.84l149.89,5.2c7,.25,14.55.38,20.54-3.34C489.45,266.48,491.26,253.22,490.05,242Z"/><path class="cls-4" d="M138.69,227c-4.42,7.2-5.45,16.57-2,24.28a35.53,35.53,0,0,0,6.78,9.56,72.92,72.92,0,0,0,21.29,15.65c5.56,2.69,11.6,4.7,17.78,4.68s12.55-2.27,16.6-6.94a18.47,18.47,0,0,0,3.42-17.64c-1.4-4.21-4.24-7.76-7.11-11.15A268.37,268.37,0,0,0,172,221.11a39.66,39.66,0,0,0-9.25-6.84c-3.57-1.72-5.37-1.52-9,0A32.89,32.89,0,0,0,138.69,227Z"/><path class="cls-5" d="M157.34,241.12a4.85,4.85,0,0,0-1,4.76,10.33,10.33,0,0,0,2.73,4.27,20.77,20.77,0,0,0,6.72,4.72,4.75,4.75,0,0,0,2,.48,3.57,3.57,0,0,0,3.06-3.46,7.62,7.62,0,0,0-1.68-4.68C167.33,244.61,160.81,237.76,157.34,241.12Z"/><path class="cls-5" d="M153.47,236.5c2.11-1.67,5.17-1.31,7.73-.47a27.38,27.38,0,0,1,18,20.52,4.79,4.79,0,0,1-.22,3.26c-.54,1-2,1.45-2.79.66,1.14,1.48,3.75.74,4.63-.91s.53-3.67,0-5.47c-2.49-8.79-8.48-16.76-16.78-20.58a16.2,16.2,0,0,0-9.2-1.64,9,9,0,0,0-7.15,5.51c-1.08,3.11.08,6.54,1.64,9.43,1.44,2.67,3.49,5.32,6.44,6C152.76,249.31,148.86,240.13,153.47,236.5Z"/><path class="cls-5" d="M156.08,260.3a60,60,0,0,0,10.17,8.95c3.81,2.45,8.32,4.05,12.83,3.62,2.69-.26,5.45-1.35,7-3.58a10.76,10.76,0,0,0,1.54-5.71,27.94,27.94,0,0,0-4.84-16.84c5.17,4.8,6.7,12.37,6.76,19.42a10.47,10.47,0,0,1-.86,5c-1.22,2.3-3.87,3.49-6.45,3.85-4.28.61-8.61-.61-12.6-2.27A56.42,56.42,0,0,1,143,249.58c-2-3.37-3.67-7.08-3.74-11s1.77-8.06,5.28-9.8a17.72,17.72,0,0,0-3.23,13.27c.54,3.27,3.87,6.18,5.93,8.67C150,254.07,153,257.19,156.08,260.3Z"/><path class="cls-6" d="M177.5,214c-.86,2,.17,4.37,1.85,5.71a13.16,13.16,0,0,0,6,2.22,44,44,0,0,0,9.08.78c6-.21,11.76-2.15,17.62-3.43,13-2.83,26.4-2.43,39.67-2,12,.38,24.08.76,36.09,1.75,28.9,2.38,57.78,8.29,86.67,5.79,2.93-.25,6.71-1.51,6.59-4.45-.13-3.09-4.3-3.89-7.39-3.76-16.72.69-33.49,1.4-50.18.07-14.38-1.15-28.59-3.8-42.91-5.59a356.22,356.22,0,0,0-54.83-2.55q-13.6.4-27.15,1.86C195.1,210.76,179,210.5,177.5,214Z"/><path class="cls-6" d="M398.51,223.86c7.83-.39,15.45-2.91,23.28-3.24,10.66-.44,21.19,3.22,31.84,2.63a15.34,15.34,0,0,0,8-2.26c2.3-1.62,3.84-4.59,3-7.3s-3.83-4.47-6.67-5.36c-7.66-2.38-15.9-1.69-23.9-1-12.86,1.15-25.82,1.92-38.64,3.34C383.17,212.05,387.11,224.74,398.51,223.86Z"/><rect class="cls-7" width="624.5" height="297.69"/><path class="cls-8" d="M261,254.48c.6-7.54,5.27-15.28,2.21-22.19a31.86,31.86,0,0,1,13.13,10.64c2.58-8.49-.18-18.16,3.48-26.24,2.73-6,8.67-10.25,11.06-16.43-.41,4.48,3.33,8.11,6.43,11.37a61.77,61.77,0,0,1,11.49,17.09,57.93,57.93,0,0,1,2.91-12.88c.1,4.45,6.15,6.71,6.86,11.1.39,2.39-.79,5.31.95,7,3.54-4.6,2-11.18,3.16-16.87,1.2-5.92,5.29-10.76,8.73-15.73s6.42-11,5-16.87c2.41,10.08,12.23,16.57,16.85,25.84,3.57,7.18,3.78,15.56,3,23.53l2.16-3.65a132.6,132.6,0,0,0,4.5,14.31,4.58,4.58,0,0,0,3.45-6,41.36,41.36,0,0,1,5.75,15c1.08,6.27.48,13.29-3.71,18.08s-11.14,6.34-17.58,6.59-13-.44-19.23,1.2c-3.15.83-6.13,2.24-9.29,3-14.69,3.66-27.19-6.92-41.39-6.65A19.8,19.8,0,0,1,261,254.48Z"/><path class="cls-9" d="M275.75,250.09l7.15,4c1.38.78,3,1.83,3.1,3.53a54.59,54.59,0,0,1,2.34-22.8A12.6,12.6,0,0,0,289.7,240a29,29,0,0,0,1.73-18.49c9.05,6.71,14.92,18.32,15.31,30.29a23.77,23.77,0,0,1,3.54-12.56,23.16,23.16,0,0,0,.94,6.84,22,22,0,0,0,3.24-10.45c4.09,5.48,7.68,12.44,6.16,19.32a68.51,68.51,0,0,1,5.72-19.78,14.08,14.08,0,0,0,.75,5.2c3.32-4.64,2.17-11.29,3.27-17.06.88-4.59,3.22-8.65,5.52-12.61a13.25,13.25,0,0,0,.14,8.72c.88,2.81,2.29,5.38,3.4,8.1a40.19,40.19,0,0,1,2.7,19.14,28.28,28.28,0,0,0,2.55-7,25.31,25.31,0,0,1,1.4,14.61,19.15,19.15,0,0,0,3.65-9.38c-.08,3.36,2.83,5.77,4.27,8.73a10.72,10.72,0,0,1,.2,8.65,18.57,18.57,0,0,0,3.4-7.45c1.84,5-.59,10.85-4.2,14.54-4.74,4.87-11.3,7.15-17.77,7.84s-13-.08-19.48-.53c-9.58-.66-19.56-.68-28.64-4.54-3.71-1.58-8-3.49-9.9-7.52C275.52,260.21,275.59,254.87,275.75,250.09Z"/><path class="cls-8" d="M293.79,184a3.13,3.13,0,0,0-.35-2.67c1.24,4.18-.52,8.75.38,13,.51,2.39,1.81,4.52,2.85,6.73s1.8,4.52,1.3,6.9c.06-4.87-3.27-5.9-5.49-9.4C289.68,194.15,292.92,188.52,293.79,184Z"/><path class="cls-8" d="M362.19,229.71c-.07-3,1.42-5.75,2.67-8.46s2.31-5.8,1.37-8.63c.68,2.77,1.37,5.54,2,8.31a11.91,11.91,0,0,1,.51,4.87c-.35,2-1.71,3.72-2.4,5.65a17.8,17.8,0,0,0-.7,6C365.69,235.16,362.27,232.58,362.19,229.71Z"/><path class="cls-8" d="M322.14,189.19c.45-4.75,3-9.45,1.81-14.07a19.17,19.17,0,0,0,2.31,8.93,20.53,20.53,0,0,1,1.88,3.71c.71,2.32.11,4.84-.7,7.13a41.24,41.24,0,0,1-2,5.58C322.78,197.62,321.78,193,322.14,189.19Z"/><path class="cls-10" d="M294,264.37a14.32,14.32,0,0,1,.22-5.37l2-12.05c-1.41,3.16,1,6.56,2.7,9.59a22.2,22.2,0,0,1,2.67,9.71l1.38-5.87,3.35,7.22a78.8,78.8,0,0,0,5-15.43,58.7,58.7,0,0,1,6.5,17.91q.66-2.37,1.31-4.74c.58,1.16,1.15,2.33,1.73,3.49A211.61,211.61,0,0,1,329.37,245c.18.6.36,1.2.55,1.81a9.39,9.39,0,0,0,1.48-6.4A69,69,0,0,1,334,266.06l1.68-4.51c.09,1.61.17,3.21.26,4.81a3.78,3.78,0,0,0,1.33-2.85c1.19,4-.61,8.42-3.77,11.08s-7.42,3.72-11.56,3.72a52.41,52.41,0,0,1-12.21-1.93c-3.38-.82-7.06-1.81-9.81-4C297.92,270.76,294.49,266.79,294,264.37Z"/></g></g></svg>