<svg xmlns="http://www.w3.org/2000/svg" viewBox="0 0 624.5 297.69"><defs><style>.cls-1{fill:#603b2c;opacity:0.36;}.cls-2{fill:#915b40;}.cls-3{fill:#7f4f39;}.cls-4{fill:#ddb376;}.cls-5{fill:#bc9766;}.cls-6{fill:#aa694d;}.cls-7{fill:none;}.cls-8{fill:#e8901a;}.cls-9{fill:#e5cc35;}.cls-10{fill:#f9f926;}</style></defs><title>자산 4</title><g id="레이어_2" data-name="레이어 2"><g id="Layer_1" data-name="Layer 1"><path class="cls-1" d="M236.75,150s-22.62-12.93-22.34,5.6,23.44,39.11,37.68,42.74,93.84,17.35,119.74,27.14S489,262.32,501.27,267.93s40.3,12.84,42.33,12,6.83-1.35,4.21-5S236.75,150,236.75,150Z"/><path class="cls-2" d="M383,220.84,523.61,273c6.61,2.45,13.7,4.94,20.55,3.3,11-2.62,16.9-14.63,19.3-25.69s2.74-23-2-33.25c-6.13-13.33-19.86-21.75-34-25.8s-28.94-4.44-43.49-6.31c-76-9.75-143.08-59.11-219.4-66.37-6.8-.65-13.9-.91-20.22,1.7-14.51,6-19.3,25.68-13.43,40.24,4.62,11.49,15.82,23.7,27.33,28.72,10.72,4.68,24.65,3,36.15,4.86C325,199.33,354.15,210.13,383,220.84Z"/><path class="cls-3" d="M563.35,250.41A68.34,68.34,0,0,0,565,233.19c-2.8,10.06-8.57,20.07-18.5,22.44-6.85,1.64-14-.85-20.55-3.3L385.35,200.14c-28.85-10.71-58-21.5-88.55-26.4-11.49-1.85-25.42-.19-36.14-4.87-11.51-5-22.71-17.23-27.34-28.71a34.39,34.39,0,0,1-1.91-6.81,35.68,35.68,0,0,0-.55,27.27c4.63,11.49,15.82,23.7,27.33,28.72,10.72,4.68,24.65,3,36.15,4.86,30.51,4.9,59.69,15.7,88.55,26.41l140.6,52.18c6.61,2.45,13.7,4.94,20.55,3.31C555.05,273.47,560.94,261.46,563.35,250.41Z"/><path class="cls-4" d="M234.6,125.47c-6.46,5.45-10.4,14-9.54,22.42a35.53,35.53,0,0,0,3.42,11.21,72.7,72.7,0,0,0,15.27,21.56c4.43,4.31,9.53,8.12,15.4,10.05s12.62,1.8,17.94-1.35a18.48,18.48,0,0,0,8.81-15.67c0-4.43-1.58-8.7-3.24-12.82a267.3,267.3,0,0,0-14.59-30.5,39.47,39.47,0,0,0-6.62-9.41c-2.84-2.75-4.62-3.14-8.51-2.8A32.94,32.94,0,0,0,234.6,125.47Z"/><path class="cls-5" d="M247.86,144.74a4.86,4.86,0,0,0-2.49,4.19,10.38,10.38,0,0,0,1.25,4.91,20.68,20.68,0,0,0,4.9,6.6,4.65,4.65,0,0,0,1.75,1.09,3.57,3.57,0,0,0,4-2.32,7.64,7.64,0,0,0-.11-5C256.23,151.2,252.21,142.64,247.86,144.74Z"/><path class="cls-5" d="M245.64,139.13c2.53-.92,5.32.39,7.48,2a27.34,27.34,0,0,1,10.6,25.14,4.8,4.8,0,0,1-1.23,3c-.83.75-2.38.75-2.86-.25.61,1.77,3.32,1.89,4.68.6s1.65-3.32,1.74-5.19c.41-9.12-2.77-18.57-9.44-24.81a16.19,16.19,0,0,0-8.21-4.46,9,9,0,0,0-8.52,3c-2,2.6-2,6.23-1.42,9.47.52,3,1.64,6.15,4.22,7.73C240.93,151.07,240.12,141.13,245.64,139.13Z"/><path class="cls-5" d="M240.61,162.54a60.21,60.21,0,0,0,6.84,11.7c2.84,3.52,6.62,6.47,11,7.48,2.63.6,5.6.43,7.75-1.2a10.81,10.81,0,0,0,3.26-4.93,28,28,0,0,0,.71-17.51c3.39,6.18,2.46,13.85.29,20.56a10.36,10.36,0,0,1-2.39,4.48c-1.88,1.79-4.77,2.08-7.33,1.62-4.25-.78-8-3.3-11.25-6.13a56.46,56.46,0,0,1-18-30.37c-.83-3.82-1.25-7.87-.08-11.61s4.22-7.09,8.09-7.64a17.72,17.72,0,0,0-7.24,11.58c-.52,3.27,1.73,7.08,2.9,10.09C236.82,154.71,238.71,158.63,240.61,162.54Z"/><path class="cls-6" d="M275.54,125.35c-1.44,1.6-1.22,4.2,0,6a13.19,13.19,0,0,0,5,4,43.57,43.57,0,0,0,8.37,3.6c5.75,1.69,11.84,1.67,17.8,2.3,13.2,1.4,25.82,6,38.28,10.6,11.31,4.15,22.62,8.31,33.7,13,26.69,11.37,52.22,26.08,80.43,32.81,2.87.69,6.85.68,7.66-2.14s-2.86-5-5.83-5.9c-16.09-4.62-32.23-9.23-47.64-15.75-13.29-5.62-25.94-12.62-39-18.83a357,357,0,0,0-51.23-19.7q-13.05-3.9-26.36-6.79C293.26,127.82,278.09,122.52,275.54,125.35Z"/><path class="cls-6" d="M482.18,204.37c7.55,2.1,15.57,2.1,23.11,4.26,10.25,3,19.09,9.74,29.39,12.53a15.27,15.27,0,0,0,8.33.38c2.69-.8,5.1-3.14,5.2-6,.11-3-2.23-5.45-4.65-7.19-6.52-4.68-14.55-6.62-22.37-8.46-12.57-3-25.1-6.32-37.72-9C471.34,188.33,471.07,201.61,482.18,204.37Z"/><path class="cls-1" d="M404.49,97s20.19-16.47,23,1.84-16.69,42.44-30.14,48.35-89.72,32.54-113.66,46.45S174.12,249.27,163,256.83s-37.65,19.28-39.79,18.8-7-.21-5-4.2S404.49,97,404.49,97Z"/><path class="cls-2" d="M271.87,190.94,141.75,265.52c-6.11,3.5-12.7,7.12-19.73,6.64C110.74,271.38,103,260.5,98.76,250s-6.47-22.22-3.5-33.13c3.85-14.15,16-24.72,29.26-31s27.82-9.15,41.86-13.38C239.79,150.35,297.8,90.64,371.89,71c6.6-1.76,13.56-3.19,20.22-1.65,15.3,3.51,23.26,22.16,19.87,37.49-2.68,12.09-11.72,26-22.24,32.82-9.81,6.38-23.82,7-34.86,10.73C325.58,160.19,298.58,175.64,271.87,190.94Z"/><path class="cls-3" d="M98.84,249.74A68.24,68.24,0,0,1,94.37,233c4.42,9.46,11.75,18.39,21.94,19.09,7,.49,13.61-3.13,19.73-6.63l130.11-74.58c26.71-15.3,53.72-30.75,83-40.6,11-3.71,25-4.36,34.86-10.73,10.53-6.85,19.56-20.73,22.24-32.82a33,33,0,0,0,.77-7,35.66,35.66,0,0,1,5,26.81c-2.68,12.09-11.72,26-22.25,32.82-9.8,6.38-23.81,7-34.85,10.73-29.3,9.85-56.3,25.3-83,40.61L141.83,265.27c-6.11,3.5-12.7,7.12-19.73,6.64C110.81,271.13,103,260.25,98.84,249.74Z"/><path class="cls-4" d="M402.59,72.49C409.86,76.8,415.15,84.6,415.68,93a35.54,35.54,0,0,1-1.53,11.62,72.88,72.88,0,0,1-11.52,23.78c-3.66,5-8.06,9.57-13.54,12.44s-12.15,3.85-17.92,1.61a18.48,18.48,0,0,1-11.26-14c-.72-4.38.13-8.85,1.09-13.18a266.09,266.09,0,0,1,9.38-32.49,39.82,39.82,0,0,1,5-10.37c2.36-3.18,4-3.85,7.94-4.15A32.79,32.79,0,0,1,402.59,72.49Z"/><path class="cls-5" d="M392.68,93.67a4.87,4.87,0,0,1,3.14,3.73,10.33,10.33,0,0,1-.43,5,20.6,20.6,0,0,1-3.74,7.32,4.81,4.81,0,0,1-1.55,1.36,3.57,3.57,0,0,1-4.32-1.63,7.62,7.62,0,0,1-.7-4.92C385.48,101.42,388,92.31,392.68,93.67Z"/><path class="cls-5" d="M394,87.77c-2.65-.49-5.19,1.26-7.06,3.2a27.36,27.36,0,0,0-6.32,26.54,4.84,4.84,0,0,0,1.71,2.77c.94.6,2.47.35,2.78-.71-.31,1.84-3,2.41-4.52,1.36s-2.18-3-2.57-4.83c-1.9-8.94-.32-18.79,5.23-26a16.22,16.22,0,0,1,7.37-5.75,9,9,0,0,1,8.9,1.53c2.4,2.25,3,5.82,2.95,9.11,0,3-.6,6.34-2.89,8.32C400.55,98.77,399.72,88.84,394,87.77Z"/><path class="cls-5" d="M402.75,110a59.57,59.57,0,0,1-4.82,12.66c-2.22,3.94-5.47,7.47-9.65,9.19-2.5,1-5.45,1.35-7.84.09a10.8,10.8,0,0,1-4-4.33,28.07,28.07,0,0,1-3.58-17.15c-2.33,6.66-.15,14.07,3.09,20.33a10.37,10.37,0,0,0,3.1,4c2.14,1.46,5.05,1.27,7.49.39,4.07-1.46,7.34-4.56,10.09-7.89a56.43,56.43,0,0,0,12.72-32.9c.19-3.91-.06-8-1.83-11.47s-5.32-6.3-9.24-6.21A17.76,17.76,0,0,1,407.3,87c1.05,3.15-.54,7.27-1.2,10.44C405.21,101.69,404,105.87,402.75,110Z"/><path class="cls-6" d="M362.19,79.09c1.68,1.34,1.89,3.94,1,5.91A13.24,13.24,0,0,1,359,89.76a44.37,44.37,0,0,1-7.66,4.92c-5.4,2.62-11.41,3.6-17.18,5.2-12.79,3.55-24.48,10.18-36,16.74-10.47,5.95-20.95,11.91-31.1,18.39-24.46,15.6-47.23,34.31-74,45.59-2.71,1.14-6.63,1.79-7.9-.87s2-5.44,4.78-6.77c15.11-7.2,30.27-14.4,44.4-23.36,12.19-7.73,23.52-16.71,35.34-25A355.71,355.71,0,0,1,317,96.77q12.23-6,24.88-11C345.11,84.44,359.2,76.72,362.19,79.09Z"/><path class="cls-6" d="M171.34,191c-7.11,3.31-15,4.63-22.09,8-9.63,4.59-17.24,12.74-26.94,17.19a15.28,15.28,0,0,1-8.15,1.74c-2.79-.35-5.55-2.26-6.11-5-.59-2.92,1.3-5.75,3.4-7.85,5.66-5.69,13.27-8.93,20.68-12,11.91-5,23.72-10.36,35.73-15.09C179.39,173.38,181.84,186.44,171.34,191Z"/><path class="cls-1" d="M148.45,249.58s-25.54-5.14-19.44,12.35,34.57,29.73,49.23,28.69,94.52-13.11,122.19-12,122.84-1.94,136.23-.47,42.3-.52,44-1.94,6.05-3.44,2.42-6S148.45,249.58,148.45,249.58Z"/><path class="cls-2" d="M309.59,270.75,459.47,276c7,.24,14.56.37,20.55-3.34,9.62-6,11.43-19.22,10.22-30.47s-4.65-22.67-12.36-30.93c-10-10.71-25.7-14.38-40.36-13.77s-28.87,4.9-43.27,7.71c-75.24,14.71-154.41-11-229.13,6.16-6.66,1.53-13.48,3.52-18.65,8-11.89,10.26-10.23,30.46-.07,42.44,8,9.44,22.49,17.5,35,18.64,11.65,1.06,24.35-4.91,35.84-6.78C247.73,268.63,278.83,269.68,309.59,270.75Z"/><path class="cls-3" d="M490.05,242a68.09,68.09,0,0,0-3.84-16.86c.51,10.43-1.81,21.75-10.48,27.12-6,3.72-13.51,3.59-20.55,3.34l-149.89-5.2c-30.76-1.07-61.85-2.12-92.36,2.84-11.49,1.88-24.19,7.84-35.83,6.78-12.51-1.14-27-9.2-35-18.64a33.4,33.4,0,0,1-4-5.85,35.6,35.6,0,0,0,8.07,26.05c8,9.44,22.48,17.5,35,18.64,11.64,1.06,24.34-4.91,35.83-6.78,30.51-5,61.6-3.91,92.36-2.84l149.89,5.2c7,.25,14.55.38,20.54-3.34C489.45,266.48,491.26,253.22,490.05,242Z"/><path class="cls-4" d="M138.69,227c-4.42,7.2-5.45,16.57-2,24.28a35.53,35.53,0,0,0,6.78,9.56,72.92,72.92,0,0,0,21.29,15.65c5.56,2.69,11.6,4.7,17.78,4.68s12.55-2.27,16.6-6.94a18.47,18.47,0,0,0,3.42-17.64c-1.4-4.21-4.24-7.76-7.11-11.15A268.37,268.37,0,0,0,172,221.11a39.66,39.66,0,0,0-9.25-6.84c-3.57-1.72-5.37-1.52-9,0A32.89,32.89,0,0,0,138.69,227Z"/><path class="cls-5" d="M157.34,241.12a4.85,4.85,0,0,0-1,4.76,10.33,10.33,0,0,0,2.73,4.27,20.77,20.77,0,0,0,6.72,4.72,4.75,4.75,0,0,0,2,.48,3.57,3.57,0,0,0,3.06-3.46,7.62,7.62,0,0,0-1.68-4.68C167.33,244.61,160.81,237.76,157.34,241.12Z"/><path class="cls-5" d="M153.47,236.5c2.11-1.67,5.17-1.31,7.73-.47a27.38,27.38,0,0,1,18,20.52,4.79,4.79,0,0,1-.22,3.26c-.54,1-2,1.45-2.79.66,1.14,1.48,3.75.74,4.63-.91s.53-3.67,0-5.47c-2.49-8.79-8.48-16.76-16.78-20.58a16.2,16.2,0,0,0-9.2-1.64,9,9,0,0,0-7.15,5.51c-1.08,3.11.08,6.54,1.64,9.43,1.44,2.67,3.49,5.32,6.44,6C152.76,249.31,148.86,240.13,153.47,236.5Z"/><path class="cls-5" d="M156.08,260.3a60,60,0,0,0,10.17,8.95c3.81,2.45,8.32,4.05,12.83,3.62,2.69-.26,5.45-1.35,7-3.58a10.76,10.76,0,0,0,1.54-5.71,27.94,27.94,0,0,0-4.84-16.84c5.17,4.8,6.7,12.37,6.76,19.42a10.47,10.47,0,0,1-.86,5c-1.22,2.3-3.87,3.49-6.45,3.85-4.28.61-8.61-.61-12.6-2.27A56.42,56.42,0,0,1,143,249.58c-2-3.37-3.67-7.08-3.74-11s1.77-8.06,5.28-9.8a17.72,17.72,0,0,0-3.23,13.27c.54,3.27,3.87,6.18,5.93,8.67C150,254.07,153,257.19,156.08,260.3Z"/><path class="cls-6" d="M177.5,214c-.86,2,.17,4.37,1.85,5.71a13.16,13.16,0,0,0,6,2.22,44,44,0,0,0,9.08.78c6-.21,11.76-2.15,17.62-3.43,13-2.83,26.4-2.43,39.67-2,12,.38,24.08.76,36.09,1.75,28.9,2.38,57.78,8.29,86.67,5.79,2.93-.25,6.71-1.51,6.59-4.45-.13-3.09-4.3-3.89-7.39-3.76-16.72.69-33.49,1.4-50.18.07-14.38-1.15-28.59-3.8-42.91-5.59a356.22,356.22,0,0,0-54.83-2.55q-13.6.4-27.15,1.86C195.1,210.76,179,210.5,177.5,214Z"/><path class="cls-6" d="M398.51,223.86c7.83-.39,15.45-2.91,23.28-3.24,10.66-.44,21.19,3.22,31.84,2.63a15.34,15.34,0,0,0,8-2.26c2.3-1.62,3.84-4.59,3-7.3s-3.83-4.47-6.67-5.36c-7.66-2.38-15.9-1.69-23.9-1-12.86,1.15-25.82,1.92-38.64,3.34C383.17,212.05,387.11,224.74,398.51,223.86Z"/><rect class="cls-7" width="624.5" height="297.69"/><path class="cls-8" d="M175,207.66c1.51-19.18,13.39-38.85,5.62-56.44A81.06,81.06,0,0,1,214,178.3c6.56-21.6-.45-46.18,8.86-66.74,6.94-15.35,22-26,28.1-41.78-1,11.41,8.48,20.61,16.36,28.92a157.37,157.37,0,0,1,29.23,43.45,146.48,146.48,0,0,1,7.4-32.75c.25,11.31,15.64,17.07,17.45,28.23,1,6.07-2,13.5,2.4,17.76,9-11.69,5.13-28.42,8.05-42.88,3-15.07,13.45-27.37,22.19-40s16.32-28,12.63-42.88c6.14,25.62,31.11,42.12,42.85,65.71,9.08,18.24,9.62,39.56,7.63,59.84q2.75-4.65,5.51-9.3a333.07,333.07,0,0,0,11.43,36.4c6.76-.9,11.43-9.08,8.78-15.36a105.36,105.36,0,0,1,14.62,38.16c2.73,15.95,1.22,33.8-9.43,46-10.77,12.33-28.34,16.13-44.71,16.77s-33.07-1.13-48.9,3c-8,2.11-15.58,5.69-23.62,7.7-37.35,9.29-69.16-17.6-105.26-16.93C197.24,262.15,172.61,237.54,175,207.66Z"/><path class="cls-9" d="M212.52,196.49l18.18,10.25c3.52,2,7.5,4.66,7.88,9a139,139,0,0,1,5.95-58A31.7,31.7,0,0,0,248,170.86a73.92,73.92,0,0,0,4.4-47c23,17.07,37.94,46.58,38.95,77a60.36,60.36,0,0,1,9-31.93,58.92,58.92,0,0,0,2.38,17.4A56.31,56.31,0,0,0,311,159.75c10.38,13.94,19.52,31.63,15.66,49.12a175,175,0,0,1,14.54-50.3,35.88,35.88,0,0,0,1.91,13.23c8.45-11.78,5.51-28.71,8.31-43.38,2.23-11.67,8.19-22,14-32-2.76,6.93-1.92,15,.34,22.15s5.85,13.69,8.66,20.6a101.77,101.77,0,0,1,6.85,48.67,72,72,0,0,0,6.51-17.91A64.28,64.28,0,0,1,391.35,207a48.85,48.85,0,0,0,9.28-23.84c-.2,8.54,7.19,14.65,10.85,22.2a27.18,27.18,0,0,1,.5,22,47.06,47.06,0,0,0,8.65-18.93c4.67,12.76-1.51,27.58-10.67,37-12.07,12.38-28.73,18.18-45.19,19.92s-33-.21-49.53-1.35c-24.37-1.68-49.76-1.72-72.85-11.54-9.44-4-20.26-8.88-25.16-19.11C211.93,222.24,212.11,208.66,212.52,196.49Z"/><path class="cls-8" d="M258.4,28.4c.44-2.32.65-5-.9-6.79,3.16,10.64-1.32,22.26,1,33.12,1.29,6.08,4.6,11.49,7.25,17.11,2.57,5.45,4.57,11.49,3.3,17.55.17-12.4-8.31-15-14-23.92C247.94,54.24,256.18,39.92,258.4,28.4Z"/><path class="cls-8" d="M432.34,144.66c-.19-7.59,3.6-14.62,6.78-21.5s5.89-14.74,3.48-21.94l5.22,21.13c1,4.06,2,8.26,1.3,12.38-.9,5.15-4.35,9.46-6.11,14.38s-1.77,10.11-1.79,15.25C441.24,158.52,432.53,152,432.34,144.66Z"/><path class="cls-8" d="M330.48,41.63c1.15-12.08,7.68-24,4.61-35.77A48.36,48.36,0,0,0,341,28.57c1.69,3.1,3.73,6,4.77,9.42,1.81,5.91.28,12.3-1.78,18.13-1.61,4.57-3,10.23-5.19,14.2C332.13,63.07,329.56,51.23,330.48,41.63Z"/><path class="cls-10" d="M258.85,232.81c-1-4.48-.21-9.13.55-13.65l5.13-30.64c-3.6,8,2.64,16.66,6.85,24.39a56.35,56.35,0,0,1,6.79,24.69l3.51-14.95q4.26,9.19,8.53,18.37A201,201,0,0,0,303,201.78a149.56,149.56,0,0,1,16.52,45.55q1.66-6,3.34-12.06l4.38,8.88a543.09,543.09,0,0,1,21.66-60.58c.47,1.54.94,3.07,1.4,4.61A23.7,23.7,0,0,0,354,171.91a175,175,0,0,1,6.48,65.2l4.26-11.46q.35,6.1.68,12.22a9.61,9.61,0,0,0,3.36-7.24c3.05,10.05-1.54,21.41-9.57,28.18s-18.88,9.46-29.39,9.46-20.84-2.46-31.05-4.92c-8.6-2.08-18-4.59-25-10.27C268.91,249.07,260.16,239,258.85,232.81Z"/></g></g></svg>