<svg xmlns="http://www.w3.org/2000/svg" viewBox="0 0 384 151.2"><defs><style>.cls-1{fill:#603b2c;opacity:0.36;}.cls-2{fill:#915b40;}.cls-3{fill:#7f4f39;}.cls-4{fill:#ddb376;}.cls-5{fill:#bc9766;}.cls-6{fill:#aa694d;}.cls-7{fill:#fff;}.cls-8{fill:none;}</style></defs><title>자산 6</title><g id="레이어_2" data-name="레이어 2"><g id="레이어_1-2" data-name="레이어 1"><path class="cls-1" d="M30.25,75S4.71,69.82,10.81,87.31,45.38,117.05,60,116s94.52-13.11,122.19-12,122.84-1.94,136.23-.47,42.3-.52,44-1.94,6.05-3.43,2.42-6S30.25,75,30.25,75Z"/><path class="cls-2" d="M191.39,96.13l149.88,5.21c7.05.25,14.56.37,20.55-3.34,9.62-6,11.43-19.21,10.22-30.46s-4.65-22.68-12.36-30.93c-10-10.72-25.7-14.39-40.36-13.78s-28.87,4.9-43.27,7.72c-75.24,14.7-154.41-11-229.13,6.15-6.66,1.53-13.48,3.52-18.65,8C16.38,54.94,18,75.15,28.2,87.12c8,9.44,22.49,17.5,35,18.64C74.84,106.82,87.54,100.85,99,99,129.53,94,160.63,95.07,191.39,96.13Z"/><path class="cls-3" d="M371.85,67.35A68.64,68.64,0,0,0,368,50.49c.51,10.43-1.81,21.75-10.49,27.13C351.53,81.33,344,81.2,337,81L187.09,75.75c-30.76-1.07-61.85-2.12-92.36,2.85-11.49,1.87-24.19,7.84-35.83,6.77-12.51-1.14-27-9.19-35-18.64A33.53,33.53,0,0,1,20,60.88,35.63,35.63,0,0,0,28,86.93c8,9.45,22.49,17.5,35,18.64,11.64,1.07,24.34-4.9,35.83-6.77,30.51-5,61.6-3.92,92.36-2.85l149.89,5.21c7,.24,14.55.37,20.54-3.34C371.25,91.86,373.06,78.6,371.85,67.35Z"/><path class="cls-4" d="M20.49,52.4C16.07,59.6,15,69,18.5,76.68a35.53,35.53,0,0,0,6.78,9.56,72.74,72.74,0,0,0,21.29,15.65c5.56,2.7,11.6,4.7,17.78,4.68S76.89,104.3,81,99.64A18.49,18.49,0,0,0,84.37,82c-1.4-4.21-4.24-7.76-7.11-11.14A268.49,268.49,0,0,0,53.8,46.49a39.66,39.66,0,0,0-9.25-6.84c-3.57-1.71-5.37-1.52-9,0A32.92,32.92,0,0,0,20.49,52.4Z"/><path class="cls-5" d="M39.14,66.51a4.84,4.84,0,0,0-1,4.76,10.37,10.37,0,0,0,2.73,4.26,20.52,20.52,0,0,0,6.72,4.72,4.75,4.75,0,0,0,2,.48,3.56,3.56,0,0,0,3.06-3.46A7.66,7.66,0,0,0,51,72.59C49.13,70,42.61,63.14,39.14,66.51Z"/><path class="cls-5" d="M35.27,61.88c2.11-1.67,5.17-1.3,7.73-.46A27.34,27.34,0,0,1,61,81.94a4.76,4.76,0,0,1-.22,3.25c-.54,1-2,1.45-2.79.66,1.14,1.49,3.75.75,4.63-.91s.53-3.67,0-5.47c-2.49-8.78-8.48-16.76-16.78-20.57a16.13,16.13,0,0,0-9.2-1.65,9,9,0,0,0-7.15,5.51c-1.08,3.11.07,6.54,1.64,9.44,1.44,2.66,3.49,5.32,6.44,6C34.56,74.69,30.66,65.52,35.27,61.88Z"/><path class="cls-5" d="M37.88,85.68a60,60,0,0,0,10.17,8.95c3.81,2.45,8.32,4.05,12.83,3.62,2.69-.26,5.45-1.35,7-3.58A10.76,10.76,0,0,0,69.39,89a28,28,0,0,0-4.84-16.84c5.17,4.8,6.7,12.37,6.76,19.42a10.53,10.53,0,0,1-.86,5c-1.22,2.29-3.87,3.48-6.45,3.84-4.28.61-8.62-.61-12.6-2.27A56.42,56.42,0,0,1,24.79,75c-2-3.37-3.67-7.08-3.74-11s1.77-8.06,5.28-9.8A17.7,17.7,0,0,0,23.1,67.44C23.64,70.71,27,73.61,29,76.1,31.81,79.45,34.84,82.57,37.88,85.68Z"/><path class="cls-6" d="M59.3,39.38c-.86,2,.17,4.37,1.85,5.7a13.16,13.16,0,0,0,6,2.22,44,44,0,0,0,9.08.78c6-.2,11.76-2.14,17.62-3.42,13-2.84,26.4-2.43,39.67-2,12,.38,24.08.76,36.09,1.75,28.9,2.38,57.78,8.29,86.67,5.79,2.93-.25,6.71-1.51,6.59-4.45s-4.31-3.89-7.39-3.76c-16.72.69-33.49,1.4-50.18.07-14.38-1.15-28.59-3.8-42.91-5.59a356.22,356.22,0,0,0-54.83-2.55q-13.6.41-27.15,1.86C76.9,36.14,60.83,35.89,59.3,39.38Z"/><path class="cls-6" d="M280.31,49.24c7.83-.39,15.44-2.91,23.28-3.23,10.66-.44,21.19,3.21,31.84,2.62a15.28,15.28,0,0,0,8-2.26c2.31-1.61,3.85-4.59,3.06-7.29-.83-2.86-3.83-4.48-6.67-5.36-7.66-2.39-15.9-1.7-23.9-1-12.86,1.15-25.82,1.91-38.64,3.33C265,37.43,268.91,50.12,280.31,49.24Z"/><path class="cls-7" d="M322.4,22.76c13.73,0,28,3.88,37.28,13.85,7.71,8.25,11.16,19.69,12.36,30.93,1.06,9.92-.23,21.4-7.15,28.06,3.55,2.59-.8,4.59-2.46,6-1.26,1.07-17.89,2.46-31.77,2.46a116.94,116.94,0,0,1-12.2-.52c-2.69-.29-8.68-.41-16.78-.41-25.65,0-72.31,1.13-101.36,1.13-7.37,0-13.61-.07-18.09-.25-1.23,0-2.57-.08-4-.08C147.56,103.94,74,115,60,116c-.59,0-1.2.06-1.82.06-15.08,0-41.56-12-47.41-28.75-3-8.47,1.52-11.63,6.91-12.64A26.87,26.87,0,0,1,20.49,52.4,32.92,32.92,0,0,1,35.58,39.68a11.72,11.72,0,0,1,4.63-1.23h.13c2.17-.68,4.38-1.25,6.58-1.76,20.33-4.67,41-6.16,61.8-6.16,37.14,0,74.8,4.76,112,4.76,18.59,0,37.08-1.19,55.32-4.75,14.4-2.82,28.61-7.11,43.27-7.72,1,0,2.05-.07,3.08-.07m0-2.83c-1.06,0-2.14,0-3.2.07-10.71.44-21.25,2.82-31.43,5.12-4,.91-8.18,1.84-12.26,2.64-16.19,3.17-34.11,4.71-54.78,4.71-18.52,0-37.51-1.21-55.88-2.38s-37.48-2.39-56.13-2.39c-24.07,0-43.91,2-62.43,6.24-2.4.55-4.5,1.1-6.4,1.69a14.91,14.91,0,0,0-5.43,1.45A35.85,35.85,0,0,0,18.07,50.92a30,30,0,0,0-3.84,21.76A10.73,10.73,0,0,0,8.34,77.3c-1.67,2.88-1.74,6.56-.21,11,6.42,18.42,34.4,30.65,50.09,30.65.69,0,1.37,0,2-.07,4.39-.32,14.41-1.59,27.09-3.2,27.82-3.52,69.87-8.85,90.9-8.85,1.41,0,2.71,0,3.89.07,4.25.17,10.2.26,18.2.26,15,0,34.69-.3,53.73-.59,18.11-.28,35.23-.54,47.63-.54,8.57,0,14.11.13,16.47.39a120.85,120.85,0,0,0,12.51.53c6.55,0,14.15-.3,20.84-.83,11.11-.89,12.07-1.71,12.77-2.31.2-.17.53-.4.88-.65,1.56-1.11,3.92-2.79,3.93-5.48a4.47,4.47,0,0,0-.43-1.93c7.08-8.62,7-21.33,6.21-28.47-1.49-13.89-5.9-24.84-13.11-32.56-8.88-9.5-22.86-14.74-39.35-14.74Z"/><rect class="cls-8" width="384" height="151.2"/></g></g></svg>