<svg id="레이어_1" data-name="레이어 1" xmlns="http://www.w3.org/2000/svg" viewBox="0 0 190 190"><defs><style>.cls-1{fill:none;}.cls-2{fill:#f39800;}.cls-3{fill:#1e1c12;}</style></defs><rect class="cls-1" width="190" height="190"/><path class="cls-2" d="M92.44,166.62c-18.6,0-35.79-.56-48.39-1.56l-1.6-.12-.22-1.59c-2.15-15-3.12-41.28-3.12-55.11v-1.86l1.86-.14c13.48-1,32.85-1.55,53.15-1.55s39.07.56,51.49,1.55l1.79.15,0,1.8c.36,13.89-1.25,42.25-3.11,55.17L144.1,165l-1.6.11C128.82,166.07,111,166.62,92.44,166.62Zm16.75-23.48-.41-14.56-29.55-.76.13,14.56ZM18.32,85.38l2.56-.87c21.89-7.4,34.7-21.8,36.42-30.28l-37-2.55-4-26.37,2.1-.2c8-.76,23.17-1.23,39.71-1.23,16.38,0,30.67.45,39.22,1.23l1.82.17V46.36c0,11.77-7.44,25.13-20.4,36.66C66.1,94.28,49.82,102.43,34.09,105.39l-1.25.23Zm93.18,17.81.16-2.15c1.3-18,1.09-54.63-2.21-73.59l-.4-2.25,44.29-1.9.12,2c.31,5,.48,10.24.51,15.61l19.53-2.08L172,75.17H152a162.38,162.38,0,0,1-5.36,26.6l-.44,1.42Z"/><path class="cls-3" d="M151.47,25.38c.34,5.68.51,11.69.51,17.71L171.41,41,170,73.17H150.26a161.29,161.29,0,0,1-5.5,28H113.65c1.37-18.91,1-55.35-2.23-74.09l40.05-1.72m-93.36.5c14.89,0,29.92.39,39,1.22V46.36c0,23.72-31.46,51.05-63.43,57.06l-12.2-17c23.89-8.08,38-24.59,38-34L22,49.79,18.59,27.1c8.3-.79,23.83-1.22,39.52-1.22m36,80.81c19.32,0,38.35.51,51.33,1.55.34,13.4-1.2,41.76-3.09,54.83-14.1,1-32.15,1.55-49.92,1.55s-35.26-.52-48.23-1.55c-2.07-14.44-3.1-40.22-3.1-54.83,14.1-1,33.69-1.55,53-1.55m17.12,38.5-.51-18.56-33.52-.86.17,18.56,33.86.86m44-124-3.93.17-40,1.72-4.55.19.78,4.49c3.28,18.82,3.49,55.26,2.19,73.11l-.14,1.9c-5-.07-10.14-.11-15.4-.11-17.23,0-33.81.41-46.7,1.13a100.49,100.49,0,0,0,32.66-19.3c13.39-11.91,21.07-25.82,21.07-38.16V23.45l-3.64-.33c-8.6-.79-23-1.24-39.4-1.24h0c-16.6,0-31.88.47-39.9,1.24l-4.2.4.63,4.18,3.44,22.69.48,3.17,3.2.22,32.89,2.27c-3.1,7.61-14.59,19.86-34.41,26.57l-5.12,1.73,3.15,4.39,12.2,17L32,107.82l2.5-.47c.88-.16,1.77-.34,2.65-.54v1.43c0,13.89,1,40.26,3.14,55.39l.45,3.17,3.19.26c12.65,1,29.9,1.56,48.55,1.56s36.48-.56,50.21-1.56l3.2-.24.46-3.18c1.89-13,3.5-41.53,3.14-55.51l-.09-3.6-1.4-.11.63-2.07a160.69,160.69,0,0,0,5.21-25.18h20.06l.17-3.83L175.4,41.2l.2-4.64-4.62.49-15,1.6c-.06-4.64-.23-9.16-.49-13.51l-.24-3.92ZM81.35,140.43l-.1-10.56,25.58.66.3,10.56-25.78-.66Z"/></svg>