<svg id="레이어_1" data-name="레이어 1" xmlns="http://www.w3.org/2000/svg" viewBox="0 0 190 190"><defs><style>.cls-1{fill:none;}.cls-2{fill:#f39800;}.cls-3{fill:#1e1c12;}</style></defs><rect class="cls-1" width="190" height="190"/><path class="cls-2" d="M104,167.65c-49.75,0-57.18-20.53-57.18-32.77s7.43-32.77,57.18-32.77a133.36,133.36,0,0,1,21.49,1.57l.06-1.06c.38-6.46,1-19,.88-32.59l-19.1,1.72V50.36l-.78,0c-4.56.34-11.18.63-18.12.8a73.59,73.59,0,0,0,21.67,30.05l1.79,1.51-20.5,17.89-1.3-1c-10.33-7.63-18.24-16-23.57-25-5.2,8.69-13.16,17.08-23.72,25l-1.3,1L21.21,82.77,23,81.27a74.54,74.54,0,0,0,21.5-30c-7.1-.18-13.73-.47-18.13-.81l-1.84-.14V24.19l1.87-.11c10.52-.67,24.78-1,40.16-1s29.59.37,40,1l1.88.12v16H125c-.42-4.7-.92-9.72-1.67-13.79L123,24.17l44.33-1.9.1,2c1.43,26.88-1.48,61.6-6.61,79.05l-.42,1.43H130.87c25.78,5.93,30.33,20.58,30.33,30.15C161.2,147.12,153.77,167.65,104,167.65Zm0-38.33c-15.89,0-21.55,2.87-21.55,5.56,0,3.75,7.86,5.91,21.55,5.91s21.72-2.21,21.72-5.91C125.74,132.19,120,129.32,104,129.32Z"/><path class="cls-3" d="M165.38,24.35c1.38,26-1.37,60.85-6.53,78.38H127.57c.51-8.76,1-21.65.86-34.89l-19.08,1.72V42.23h17.88c-.52-5.84-1-11.52-1.9-16.16l40.05-1.72M66.53,25c14.59,0,29.15.34,39.9,1V48.42c-4.64.34-12.21.69-20.8.86a75.65,75.65,0,0,0,23.2,33.52L91.3,98.09c-11.17-8.25-19.6-17.53-24.75-27.5-5.16,10-13.93,19.25-24.93,27.5L24.26,82.8a76.72,76.72,0,0,0,23-33.52c-8.77-.17-16.33-.52-20.8-.86V26.07c10.83-.69,25.44-1,40-1M104,104.11c40.91,0,55.18,13.75,55.18,30.77S144.93,165.65,104,165.65c-40.74,0-55.18-13.75-55.18-30.77S63.28,104.11,104,104.11m0,38.68c16.33,0,23.72-2.93,23.72-7.91,0-4.64-7.39-7.56-23.72-7.56s-23.55,2.92-23.55,7.56c0,5,7.22,7.91,23.55,7.91m65.15-122.6-4,.17-40.05,1.72-4.6.19.84,4.53c.63,3.37,1.07,7.44,1.45,11.43H110.43V22.32l-3.75-.24C96.21,21.41,82,21,66.53,21s-29.73.37-40.29,1l-3.74.24v29.8l3.69.29c3.83.29,9.32.55,15.34.73A72.78,72.78,0,0,1,21.67,79.75l-3.52,3,3.47,3.06L39,101.1l2.44,2.15,2.6-2c9.66-7.24,17.21-14.9,22.51-22.84,5.28,8,12.59,15.53,21.82,22.43-37.44,4-43.51,22.46-43.51,34,0,13,7.69,34.77,59.18,34.77,20,0,35.12-3.24,45.09-9.64,9.22-5.91,14.09-14.6,14.09-25.13s-4.87-19.23-14.09-25.13a44.75,44.75,0,0,0-5.59-3h18.33l.84-2.87c5.19-17.63,8.12-52.64,6.69-79.72l-.21-3.95ZM91.4,53.13c5.23-.15,10.15-.37,13.95-.63V73.94l4.36-.4,14.75-1.33c0,11.93-.46,22.83-.82,29.15A141.8,141.8,0,0,0,104,100.11c-3.25,0-6.33.09-9.24.25l16.68-14.55L115,82.73l-3.59-3a71.81,71.81,0,0,1-20-26.6ZM104,138.79c-7.49,0-13.07-.63-16.57-1.86-1.37-.49-3-1.31-3-2.05,0,0,1.77-3.56,19.55-3.56s19.71,3.5,19.72,3.54c0,.84-3.35,3.93-19.72,3.93Z"/></svg>