<svg id="레이어_1" data-name="레이어 1" xmlns="http://www.w3.org/2000/svg" viewBox="0 0 190 190"><defs><style>.cls-1{fill:none;}.cls-2{fill:#f39800;}.cls-3{fill:#1e1c12;}</style></defs><rect class="cls-1" width="190" height="190"/><path class="cls-2" d="M91.1,166.64c-19.78,0-37.45-.52-48.48-1.43L41,165.08l-.21-1.6c-1.37-10.64-3.63-43-3.11-56.89l.07-1.92h38L75.59,114h32.33l-.35-9.28h38.56l.07,1.93c.5,14.17-.84,43.23-3.12,57l-.26,1.55-1.57.11C129.16,166.12,110.88,166.64,91.1,166.64Zm18-24.38-.16-3.57-33.73-1.08v3.89Zm1-39.09.15-2.15c1.31-18,1.1-54.63-2.21-73.59l-.39-2.25,44.29-1.9.12,2c.3,5,.47,10.24.51,15.61l19.53-2.08-1.56,36.38H150.61a161.33,161.33,0,0,1-5.36,26.6l-.43,1.42ZM57.26,99.94c-12,0-23.65-.49-33.74-1.42l-1.59-.15-.21-1.58C18.12,70.18,17.28,51.25,18.61,27l.11-1.89H52.44l-.69,15.13H64.11l-.34-15.13H97.66L97.72,27a417.9,417.9,0,0,1-3.1,69.75l-.2,1.61-1.62.14C81.52,99.45,69.24,99.94,57.26,99.94ZM65.13,73.8l-.22-8-14.38.68-.32,6.66Z"/><path class="cls-3" d="M150,25.36c.35,5.68.52,11.69.52,17.71L170,41l-1.37,32.15H148.84a162.23,162.23,0,0,1-5.5,28H112.23c1.37-18.91,1-55.35-2.24-74.09L150,25.36M95.72,27.08a417.9,417.9,0,0,1-3.09,69.45c-11.43.94-23.55,1.41-35.37,1.41s-23.33-.47-33.56-1.41c-3.44-25.44-4.47-44.35-3.09-69.45H50.35l-.69,15.13h16.5l-.34-15.13h29.9M67.19,75.9l-.34-12.21-18.22.86L48.11,75l19.08.86m77,30.77c.51,14.44-.86,43.14-3.1,56.55-12.63.94-31.45,1.42-50,1.42s-36.81-.48-48.33-1.42c-1.37-10.66-3.61-42.8-3.09-56.55h34L73.55,116H110l-.34-9.28H144.2m-33,37.64-.34-7.56-37.64-1.21v7.91l38,.86M153.8,21.2l-3.93.17-40.05,1.72-4.55.19.78,4.49c3.28,18.81,3.48,55.26,2.19,73.11l-.13,1.79H105.5l.15,4.14.19,5.14H77.63l.09-5.21.08-4.07h-42l-.15,3.85c-.52,14,1.75,46.52,3.13,57.21l.41,3.21,3.23.27c11.08.91,28.81,1.43,48.65,1.43s38.15-.52,50.29-1.43l3.13-.24.52-3.09c2.3-13.82,3.65-43.09,3.15-57.36l-.14-3.85h-1l.11-.34a161.84,161.84,0,0,0,5.21-25.18h20.06l.16-3.83L174,41.18l.2-4.64-4.62.49-15,1.59c-.07-4.63-.23-9.15-.5-13.5l-.23-3.92ZM99.59,23.08H61.72l.1,4.09.25,11H53.84l.5-10.95.19-4.18H16.82l-.21,3.78c-1.33,24.42-.49,43.45,3.13,70.2l.43,3.16,3.16.29c10.16.94,21.89,1.43,33.93,1.43s24.38-.49,35.7-1.43l3.25-.27L96.6,97a419.32,419.32,0,0,0,3.12-70l-.13-3.87ZM52.44,68.38,63,67.88l.11,3.83L52.3,71.22l.14-2.84Z"/></svg>