<svg id="레이어_1" data-name="레이어 1" xmlns="http://www.w3.org/2000/svg" viewBox="0 0 190 190"><defs><style>.cls-1{fill:none;}.cls-2{fill:#f39800;}.cls-3{fill:#1e1c12;}</style></defs><rect class="cls-1" width="190" height="190"/><path class="cls-2" d="M103.07,166.59c-24.74,0-44-.63-51.5-1.68l-1.47-.21-.23-1.47c-1.7-11-3.47-35.81-3.12-49l.06-2H87.93l1.38,21.87,74.5,1.73L162,164.49l-1.59.24C152,166,125.52,166.59,103.07,166.59Zm22.31-45.15.1-2.1c.52-11.11.66-24.82.39-38.8l-18.78,1.73V51.42l-.79,0c-5,.35-12.67.65-20.77.82,3.15,15.38,11.32,28.65,24.32,39.48l1.8,1.5-20.51,17.9-1.29-1c-10.33-7.63-18.25-16-23.57-25-5.2,8.68-13.16,17.07-23.72,25l-1.3,1L21,93.29l1.75-1.5c12.81-10.93,20.87-24.21,24-39.5-8-.17-15.54-.47-20.6-.82l-1.86-.12V25.26l1.87-.12c10.52-.67,24.78-1,40.15-1s29.6.37,40,1l1.87.12V50.74h16.68c-.43-7.31-1-15.19-1.76-23.43l-.18-2.09L167,23.33l.16,1.92c2.15,26.15.63,68.22-6.42,94.7l-.4,1.49Z"/><path class="cls-3" d="M165.12,25.41c2.07,25.1.69,67.56-6.36,94H127.48c.51-11,.69-25.61.34-41.08l-18.73,1.72V52.74H127c-.51-9.11-1.2-17.87-1.89-25.61l40.05-1.72m-98.86.69c14.59,0,29.16.35,39.9,1V49.48c-5,.34-13.4.69-23,.86,2.75,16.16,11,30.94,25.44,43L91,108.61c-11.17-8.25-19.6-17.53-24.75-27.5-5.16,10-13.93,19.25-24.93,27.5L24,93.31c14.1-12,22.35-26.81,25.1-43-9.63-.17-17.88-.52-22.86-.86V27.13c10.82-.68,25.44-1,40-1m19.79,88.18,1.38,21.83,74.26,1.72-1.55,24.92c-7.8,1.18-32.74,1.84-57.07,1.84-21.79,0-43.1-.53-51.22-1.66-1.72-11.18-3.44-35.76-3.1-48.65h37.3m82.74-93-3.84.17-40,1.72-4.18.18.37,4.17c.66,7.43,1.21,14.56,1.63,21.25H110.16V23.38l-3.74-.24c-10.47-.67-24.73-1-40.16-1s-29.72.37-40.28,1l-3.74.24V53.21l3.72.26c4.57.31,11.17.59,18.25.76-3.35,13.86-11,26-22.81,36l-3.5,3,3.46,3,17.36,15.3,2.44,2.15,2.6-2,1.08-.82-.09,3.18c-.35,13.3,1.43,38.26,3.14,49.36l.46,2.95,2.94.41c7.6,1.06,26.95,1.7,51.78,1.7,22.52,0,49.09-.58,57.67-1.88l3.19-.48.2-3.23,1.55-24.92.26-4.15-4.16-.1L91.19,132.2,90.05,114,90,112.79l1.28.95,2.42-2.12,17.53-15.3,3.54-3.08-3.61-3c-12-10-19.73-22.07-23.11-36,6.52-.16,12.6-.4,17.07-.67v30.9l4.36-.4,14.46-1.33c.21,13.19.07,26-.43,36.52l-.19,4.19h38.55l.79-3c7.11-26.7,8.64-69.07,6.48-95.38l-.32-3.84Zm-123,89C54.47,103.49,61.34,96.35,66.27,89a89.46,89.46,0,0,0,20.35,21.31H45.76Z"/></svg>